<?xml version="1.0" standalone="no"?>
<!DOCTYPE svg PUBLIC "-//W3C//DTD SVG 20010904//EN"
 "http://www.w3.org/TR/2001/REC-SVG-20010904/DTD/svg10.dtd">
<svg version="1.0" xmlns="http://www.w3.org/2000/svg"
 width="2400.000000pt" height="1800.000000pt" viewBox="0 0 2400.000000 1800.000000"
 preserveAspectRatio="xMidYMid meet">

<g transform="translate(0.000000,1800.000000) scale(0.100000,-0.100000)"
fill="#000000" stroke="none">
<path d="M1347 17994 c-20 -20 52 -74 98 -74 32 0 105 38 105 56 0 6 -10 14
-22 18 -30 8 -173 8 -181 0z"/>
<path d="M2470 17987 c-52 -18 -70 -62 -70 -168 0 -116 21 -182 75 -236 35
-36 49 -43 81 -43 83 0 141 65 174 194 35 138 22 245 -32 260 -39 10 -191 6
-228 -7z"/>
<path d="M7030 17998 c0 -2 7 -38 15 -81 16 -82 49 -144 118 -219 30 -32 41
-38 77 -38 57 0 156 26 206 55 46 27 124 108 124 129 0 8 11 28 25 44 14 17
32 49 40 71 l14 41 -309 0 c-171 0 -310 -1 -310 -2z"/>
<path d="M8712 17991 c-65 -17 -139 -115 -168 -225 -21 -76 -28 -203 -15 -271
14 -78 80 -211 129 -262 22 -22 61 -48 87 -58 42 -17 55 -17 124 -6 92 15 143
43 216 119 153 156 188 420 86 639 l-30 63 -94 0 c-52 0 -141 2 -198 5 -57 2
-119 0 -137 -4z"/>
<path d="M13475 17959 c47 -48 77 -65 130 -74 22 -4 59 -14 82 -22 90 -33 334
28 401 100 l23 24 -68 6 c-37 4 -189 7 -338 7 l-269 0 39 -41z"/>
<path d="M15294 17948 c-19 -128 4 -331 47 -424 42 -89 157 -186 277 -233 115
-46 445 -8 468 54 3 8 16 15 28 15 11 0 33 8 47 18 32 21 179 170 179 182 0 4
16 27 35 50 19 23 35 50 35 61 0 10 9 23 21 29 26 14 52 75 44 101 -4 10 1 29
9 41 11 15 16 45 16 90 l0 68 -599 0 -599 0 -8 -52z"/>
<path d="M17588 17943 c-83 -108 -148 -215 -170 -282 -19 -58 -21 -87 -21
-251 1 -129 5 -196 15 -222 16 -45 121 -200 162 -241 64 -62 189 -109 338
-127 123 -15 234 9 393 86 49 24 206 158 263 226 86 102 155 266 182 430 6 39
4 60 -6 80 -18 35 -18 69 1 94 23 30 19 64 -7 64 -21 0 -23 4 -20 51 4 52 -12
109 -31 109 -6 0 -19 8 -30 18 -18 16 -60 17 -522 20 l-502 4 -45 -59z"/>
<path d="M20843 17970 c-40 -5 -85 -16 -100 -23 -16 -8 -46 -18 -68 -21 -22
-4 -49 -13 -60 -20 -11 -7 -40 -13 -63 -13 -92 0 -288 -131 -416 -277 -65 -76
-126 -158 -126 -173 0 -4 -16 -33 -35 -64 -19 -30 -39 -78 -45 -104 -6 -27
-15 -54 -20 -60 -17 -20 -32 -168 -26 -246 13 -162 73 -323 158 -428 24 -29
75 -74 114 -100 249 -167 553 -186 839 -52 344 161 553 444 587 795 11 115 5
277 -12 321 -11 30 -120 166 -201 250 -31 33 -63 73 -70 90 -18 38 -73 75
-112 75 -17 0 -48 12 -70 27 -33 23 -50 27 -120 29 -45 1 -115 -2 -154 -6z"/>
<path d="M3636 17720 c-78 -74 -118 -155 -124 -250 -11 -184 77 -330 197 -330
86 0 153 63 202 188 33 83 33 227 1 297 -41 88 -114 145 -187 145 -30 0 -46
-9 -89 -50z"/>
<path d="M10530 17700 c-41 -3 -84 -11 -96 -18 -36 -19 -187 -186 -221 -243
-18 -30 -39 -81 -48 -114 -27 -107 -15 -315 26 -442 66 -204 343 -289 521
-161 68 50 148 138 178 198 57 114 82 236 60 295 -8 20 -7 30 5 41 20 20 19
52 -3 94 -11 19 -22 51 -25 71 -17 112 -124 242 -226 277 -36 13 -52 13 -171
2z"/>
<path d="M4895 17456 c-84 -37 -160 -128 -196 -235 -41 -122 -12 -288 68 -381
65 -75 177 -111 233 -74 33 22 100 86 100 95 0 4 14 30 31 58 l31 50 1 153 c0
106 -4 161 -13 178 -16 30 -96 130 -122 153 -24 20 -90 22 -133 3z"/>
<path d="M23262 17265 c-29 -8 -65 -21 -81 -30 -16 -8 -48 -17 -72 -21 -56 -8
-102 -35 -214 -123 -157 -124 -184 -151 -244 -242 -129 -195 -168 -337 -159
-565 6 -126 22 -172 103 -295 80 -119 160 -193 259 -239 130 -59 218 -75 426
-75 190 0 226 6 365 67 105 45 108 47 236 158 l119 103 0 536 0 537 -47 46
c-95 93 -259 143 -503 153 -103 4 -148 2 -188 -10z"/>
<path d="M12450 17191 c-8 -5 -51 -12 -95 -15 -208 -18 -337 -111 -435 -311
-106 -218 -104 -446 6 -607 82 -120 165 -176 297 -199 78 -13 118 -6 218 39
90 41 164 100 231 184 95 119 134 215 151 371 9 86 8 108 -10 195 -33 154 -41
166 -131 211 -42 21 -97 45 -121 52 -23 7 -44 18 -46 23 -2 6 -6 23 -9 39 -7
28 -27 34 -56 18z"/>
<path d="M680 17064 c-66 -59 -81 -92 -87 -192 -5 -72 -3 -94 12 -122 32 -64
88 -110 134 -110 11 0 33 12 50 26 45 38 64 113 59 233 -5 116 -29 172 -79
190 -44 15 -44 15 -89 -25z"/>
<path d="M6259 16991 c-59 -18 -142 -79 -179 -131 -59 -83 -80 -310 -39 -433
38 -115 144 -207 239 -207 104 1 226 124 272 273 27 89 22 232 -11 318 -52
135 -173 212 -282 180z"/>
<path d="M14182 16802 c-43 -12 -57 -13 -77 -2 -41 22 -83 -4 -289 -180 -42
-35 -76 -71 -76 -79 0 -7 -15 -48 -34 -90 -49 -108 -69 -228 -64 -376 4 -111
7 -125 38 -190 86 -180 323 -321 484 -288 81 17 200 70 266 119 135 99 290
376 290 517 0 57 -39 214 -71 286 -34 77 -109 179 -140 190 -23 8 -30 18 -35
51 -4 24 -11 39 -18 36 -68 -29 -84 -29 -116 -2 -36 30 -75 32 -158 8z"/>
<path d="M1714 16750 c-33 -13 -81 -77 -94 -126 -8 -26 -11 -77 -8 -126 7
-132 53 -199 137 -202 54 -1 85 19 127 80 43 62 52 116 34 206 -17 90 -52 153
-91 167 -37 13 -75 13 -105 1z"/>
<path d="M7612 16538 c-102 -56 -158 -126 -195 -243 -17 -55 -21 -96 -22 -190
0 -120 0 -120 39 -197 55 -109 86 -143 154 -168 66 -25 128 -23 189 9 42 21
129 105 168 163 59 87 92 237 64 290 -6 12 -13 45 -15 74 -6 103 -51 190 -130
251 -33 25 -47 28 -123 31 -75 3 -92 0 -129 -20z"/>
<path d="M2785 16363 c-90 -47 -130 -127 -130 -258 0 -78 4 -97 28 -147 99
-202 267 -160 312 78 34 173 26 204 -74 297 -55 52 -84 58 -136 30z"/>
<path d="M16181 16259 c-193 -27 -441 -267 -529 -511 -22 -61 -26 -89 -26
-173 1 -197 52 -324 178 -451 80 -80 82 -81 194 -118 62 -21 121 -35 130 -31
9 3 52 10 94 15 135 16 273 87 389 202 73 71 169 201 169 228 0 10 12 44 27
76 25 53 28 71 28 169 0 124 -24 253 -60 325 -13 25 -43 73 -68 106 -40 54
-56 67 -139 108 -52 25 -113 48 -138 51 -96 10 -197 12 -249 4z"/>
<path d="M9172 16055 c-56 -25 -147 -101 -185 -157 -46 -66 -74 -145 -88 -244
-27 -196 68 -407 217 -480 47 -23 64 -26 118 -22 67 6 194 58 228 95 85 89
136 199 145 312 10 124 -39 326 -94 386 -39 42 -111 84 -182 105 -74 23 -114
25 -159 5z"/>
<path d="M3914 15921 c-102 -59 -157 -201 -134 -346 13 -82 46 -148 97 -197
50 -49 78 -58 138 -47 90 17 114 36 148 119 30 71 32 82 32 205 0 125 -1 133
-30 190 -38 76 -79 105 -149 105 -38 0 -64 -8 -102 -29z"/>
<path d="M6 15855 c-3 -9 -6 -76 -6 -148 0 -213 13 -246 72 -191 66 63 90 157
64 246 -21 70 -44 97 -87 104 -28 5 -37 2 -43 -11z"/>
<path d="M18440 15755 c-79 -27 -257 -118 -336 -170 -101 -68 -171 -144 -223
-244 -77 -151 -135 -373 -113 -435 7 -18 12 -50 12 -72 0 -22 7 -50 17 -63 9
-13 29 -51 45 -84 36 -74 106 -165 150 -193 84 -55 125 -78 187 -102 60 -24
78 -26 196 -25 168 1 239 18 374 90 115 61 193 128 268 228 47 62 123 210 123
240 0 9 10 37 21 63 21 45 21 48 5 173 -18 143 -44 227 -102 319 -62 100 -114
144 -242 206 -85 41 -118 52 -127 44 -10 -8 -15 -6 -20 9 -9 29 -47 36 -78 16
-23 -15 -30 -15 -74 -2 -39 12 -55 12 -83 2z"/>
<path d="M5215 15636 c-36 -16 -113 -98 -150 -161 -14 -25 -31 -72 -37 -106
-19 -110 22 -284 84 -355 53 -60 182 -83 257 -44 45 22 91 73 91 100 0 10 7
20 15 24 8 3 15 13 15 23 0 10 9 35 20 56 36 67 20 228 -34 335 -26 52 -91
117 -132 132 -35 14 -93 12 -129 -4z"/>
<path d="M10839 15575 c-161 -59 -243 -144 -303 -315 -26 -74 -30 -99 -30
-195 -1 -108 0 -113 36 -185 49 -98 118 -183 176 -217 41 -24 60 -28 147 -31
94 -4 102 -2 138 22 21 14 41 26 46 26 18 0 94 77 150 150 82 109 103 169 102
293 -2 186 -46 302 -149 382 -99 78 -219 105 -313 70z"/>
<path d="M917 15434 c-17 -9 -38 -36 -53 -67 -42 -91 -29 -215 32 -294 36 -47
59 -57 95 -43 101 42 133 185 77 338 -28 76 -86 101 -151 66z"/>
<path d="M21290 15400 c-8 -5 -34 -10 -57 -10 -23 0 -64 -8 -90 -19 -26 -10
-70 -21 -98 -25 -127 -18 -255 -84 -355 -185 -36 -36 -86 -83 -111 -103 -55
-44 -172 -214 -206 -300 -45 -112 -56 -413 -19 -503 10 -22 17 -57 18 -77 0
-21 4 -38 9 -38 5 0 30 -32 55 -71 98 -149 351 -308 490 -309 22 0 61 -7 87
-16 42 -14 56 -14 149 0 206 30 405 107 515 198 126 105 261 282 309 407 33
86 44 137 61 289 11 99 -31 281 -80 346 -13 17 -40 59 -60 92 -20 34 -56 78
-80 98 -23 20 -54 48 -69 61 -15 14 -34 25 -44 25 -9 0 -31 15 -48 34 -23 23
-44 35 -72 39 -21 3 -93 21 -159 41 -135 41 -125 39 -145 26z"/>
<path d="M12533 15101 c-28 -9 -70 -29 -92 -44 -70 -46 -201 -227 -201 -277 0
-9 -12 -45 -26 -81 -23 -56 -25 -72 -19 -133 9 -91 39 -209 71 -273 57 -119
174 -205 300 -222 110 -16 283 24 322 73 10 13 28 26 40 30 12 4 51 51 91 112
80 119 122 232 122 324 0 132 -8 219 -22 236 -8 9 -34 55 -59 102 -41 78 -50
89 -100 116 -77 41 -148 56 -270 56 -75 -1 -120 -6 -157 -19z"/>
<path d="M6582 15097 c-53 -17 -128 -91 -161 -160 -120 -246 4 -566 220 -567
103 0 184 50 226 140 15 33 31 60 35 60 28 0 39 241 14 324 -17 56 -86 148
-140 188 -33 24 -48 28 -100 27 -34 -1 -76 -6 -94 -12z"/>
<path d="M1990 15083 c-76 -29 -113 -101 -114 -223 -1 -105 20 -165 75 -214
90 -82 191 -18 220 139 13 73 5 133 -28 208 -37 82 -90 113 -153 90z"/>
<path d="M3100 14682 c-41 -20 -71 -63 -101 -140 -17 -46 -20 -72 -17 -137 5
-93 27 -144 88 -205 46 -46 80 -51 146 -21 84 38 119 118 112 255 -6 98 -21
145 -65 201 -50 65 -100 79 -163 47z"/>
<path d="M7963 14636 c-12 -9 -45 -29 -74 -44 -29 -15 -55 -34 -59 -42 -6 -15
-32 -66 -74 -145 -18 -35 -21 -57 -21 -180 0 -124 3 -147 24 -199 65 -161 272
-250 403 -173 100 58 188 198 210 332 14 85 0 182 -39 261 -32 66 -115 147
-180 175 -65 28 -161 36 -190 15z"/>
<path d="M23725 14574 c-86 -19 -229 -73 -315 -121 -155 -84 -289 -231 -383
-419 -61 -121 -71 -171 -71 -339 -1 -180 24 -285 79 -345 18 -19 40 -48 48
-65 46 -89 243 -218 409 -266 92 -26 361 -38 451 -20 l57 12 -2 787 -3 787
-100 2 c-59 1 -129 -5 -170 -13z"/>
<path d="M14620 14539 c-119 -19 -215 -41 -244 -56 -50 -25 -206 -144 -217
-165 -6 -11 -26 -41 -45 -65 -19 -25 -34 -52 -34 -61 0 -9 -12 -35 -25 -57
-14 -22 -25 -54 -25 -72 0 -18 -7 -58 -15 -90 -19 -72 -19 -114 0 -188 25
-100 74 -184 150 -261 133 -135 289 -182 467 -139 183 44 285 132 387 336 32
65 62 138 66 161 3 24 11 64 16 90 9 37 8 52 -5 77 -9 16 -16 48 -16 71 0 22
-4 48 -9 58 -5 9 -21 42 -35 74 -27 57 -148 198 -170 198 -6 0 -29 9 -51 20
-22 11 -45 20 -53 20 -7 0 -27 14 -44 30 -16 17 -33 29 -36 29 -4 -1 -32 -5
-62 -10z"/>
<path d="M239 14275 c-84 -46 -89 -248 -8 -340 43 -48 76 -47 123 5 34 38 36
43 36 113 0 91 -23 172 -60 209 -32 31 -52 34 -91 13z"/>
<path d="M4247 14180 c-91 -58 -133 -157 -124 -297 10 -167 99 -278 221 -278
65 0 101 25 154 105 48 72 60 146 43 259 -18 118 -61 179 -156 222 -56 26 -84
24 -138 -11z"/>
<path d="M9503 14120 c-161 -32 -266 -181 -299 -425 -6 -43 24 -181 55 -250
22 -49 125 -152 182 -182 76 -41 213 -26 322 34 41 23 63 46 103 106 79 118
90 163 76 318 -6 70 -18 139 -26 155 -9 16 -18 41 -21 56 -8 43 -99 133 -167
167 -65 33 -132 39 -225 21z"/>
<path d="M16444 13869 c-155 -67 -293 -208 -410 -419 -17 -31 -22 -63 -27
-174 l-7 -137 41 -103 c25 -65 51 -114 70 -131 16 -16 29 -35 29 -42 0 -21 87
-109 128 -130 20 -10 48 -26 62 -35 80 -53 285 -67 410 -29 168 51 274 134
384 300 77 115 89 165 90 366 l1 170 -35 80 c-28 64 -49 93 -102 145 -36 36
-90 78 -120 94 -139 75 -121 70 -288 73 -154 3 -155 3 -226 -28z"/>
<path d="M1195 13837 c-19 -19 -38 -52 -45 -78 -16 -57 -8 -175 14 -217 21
-42 71 -72 116 -72 66 1 90 39 97 154 7 111 -10 188 -48 221 -45 37 -92 34
-134 -8z"/>
<path d="M5533 13791 c-82 -28 -102 -46 -141 -129 -35 -73 -37 -82 -36 -172 1
-104 20 -168 73 -252 45 -70 92 -101 162 -106 73 -5 108 8 155 60 68 76 111
214 100 319 -10 99 -42 167 -112 237 -58 58 -65 62 -106 61 -23 0 -66 -8 -95
-18z"/>
<path d="M11187 13500 c-96 -25 -186 -98 -232 -192 -15 -29 -36 -63 -47 -74
-26 -30 -42 -139 -35 -257 4 -79 10 -109 32 -152 43 -89 109 -170 171 -211
l59 -39 116 0 c132 0 137 2 268 115 108 93 142 139 151 207 4 32 13 79 20 104
18 62 -3 150 -66 277 -57 114 -119 181 -189 206 -60 20 -195 29 -248 16z"/>
<path d="M2270 13442 c-21 -10 -45 -34 -60 -62 -22 -39 -25 -57 -25 -140 0
-84 3 -102 28 -152 32 -65 71 -98 126 -105 105 -14 189 177 141 323 -19 59
-65 119 -104 138 -43 20 -63 20 -106 -2z"/>
<path d="M6921 13310 c-158 -53 -239 -186 -228 -369 11 -197 121 -351 249
-351 56 0 141 30 194 69 83 59 125 193 105 334 -22 158 -80 255 -182 306 -72
36 -67 35 -138 11z"/>
<path d="M18795 13318 c-206 -47 -266 -63 -300 -80 -61 -31 -234 -212 -273
-284 -17 -34 -32 -72 -32 -85 0 -12 -10 -33 -21 -45 -12 -13 -25 -42 -30 -66
-13 -67 -10 -255 6 -341 16 -89 41 -138 96 -185 22 -19 39 -39 39 -47 0 -17
68 -78 133 -119 107 -67 303 -107 431 -86 188 30 423 174 531 325 91 128 115
219 118 448 2 120 2 123 -33 192 -27 56 -58 93 -150 184 -131 130 -172 153
-308 175 -133 22 -164 24 -207 14z"/>
<path d="M3420 13043 c-47 -18 -114 -110 -124 -168 -10 -59 11 -171 42 -228
73 -135 203 -139 279 -9 25 41 28 57 28 132 0 76 -4 93 -33 153 -19 39 -47 78
-67 93 -34 25 -96 39 -125 27z"/>
<path d="M12970 12980 c-8 -6 -53 -22 -99 -37 -46 -14 -90 -33 -97 -42 -7 -9
-37 -45 -67 -81 -114 -136 -147 -218 -147 -362 0 -160 48 -280 158 -399 132
-143 300 -180 485 -108 104 41 129 62 204 172 92 136 117 209 117 337 -2 245
-153 463 -344 495 -25 4 -54 14 -65 21 -22 16 -123 19 -145 4z"/>
<path d="M21405 12809 c-94 -9 -171 -32 -265 -79 -63 -32 -254 -182 -291 -229
-68 -87 -68 -86 -62 -128 5 -41 5 -42 -49 -78 -31 -20 -61 -48 -67 -62 -16
-35 -41 -204 -41 -273 1 -99 26 -208 69 -294 78 -157 89 -170 216 -267 160
-121 191 -139 271 -150 38 -5 81 -18 97 -28 22 -14 37 -17 61 -11 17 5 78 11
136 15 275 17 488 107 670 285 74 72 94 99 129 171 69 146 94 247 94 374 0 94
-3 120 -25 180 -14 39 -33 95 -42 127 -9 31 -31 74 -49 96 -17 22 -39 53 -48
69 -22 41 -112 115 -194 159 -38 20 -81 47 -95 59 -49 44 -91 58 -205 66 -132
9 -191 9 -310 -2z"/>
<path d="M545 12761 c-50 -21 -86 -95 -87 -181 -2 -149 124 -243 196 -147 48
64 26 234 -39 303 -34 36 -38 37 -70 25z"/>
<path d="M8298 12701 c-162 -103 -225 -224 -216 -415 7 -138 32 -203 107 -277
176 -173 442 -88 517 166 25 85 24 223 -3 297 -43 118 -130 201 -252 239 -83
25 -99 24 -153 -10z"/>
<path d="M4563 12531 c-79 -57 -139 -188 -131 -285 6 -69 56 -174 112 -231 35
-36 49 -44 93 -50 70 -9 125 17 175 83 49 64 58 90 58 176 0 154 -60 265 -170
315 -61 28 -90 26 -137 -8z"/>
<path d="M1486 12356 c-86 -90 -87 -276 -2 -361 51 -51 151 -21 189 58 17 33
18 48 9 128 -7 63 -16 99 -29 118 -26 34 -100 91 -120 91 -9 0 -30 -15 -47
-34z"/>
<path d="M14795 12380 c-38 -4 -86 -14 -106 -23 -94 -46 -267 -213 -311 -302
-28 -55 -42 -139 -42 -255 0 -140 19 -213 69 -269 19 -21 35 -42 35 -46 0 -10
63 -84 118 -140 24 -24 64 -54 89 -66 41 -20 55 -21 147 -16 116 7 237 35 316
74 85 41 179 141 228 243 52 107 62 151 61 275 0 76 -5 113 -20 155 -11 30
-27 74 -36 98 -17 47 -81 110 -189 187 -110 79 -195 99 -359 85z"/>
<path d="M9805 12142 c-16 -10 -66 -57 -111 -104 -73 -76 -83 -92 -104 -159
-13 -41 -25 -101 -28 -134 -7 -110 39 -250 111 -333 18 -20 37 -46 43 -57 16
-31 111 -74 180 -81 133 -14 296 71 348 180 43 90 58 177 54 301 -4 139 -23
181 -127 287 -86 86 -127 105 -261 114 -63 5 -80 2 -105 -14z"/>
<path d="M5863 12001 c-48 -35 -102 -100 -134 -161 -33 -62 -33 -208 0 -291
53 -136 112 -189 219 -196 62 -4 71 -2 122 29 46 28 60 44 89 100 59 117 53
255 -18 396 -42 84 -74 118 -128 136 -68 23 -104 20 -150 -13z"/>
<path d="M2570 11897 c-71 -36 -109 -183 -78 -305 8 -33 26 -61 63 -99 70 -72
100 -73 166 -4 69 71 86 151 54 257 -17 59 -76 131 -122 150 -40 17 -51 17
-83 1z"/>
<path d="M23845 11872 c-33 -16 -76 -34 -95 -40 -125 -42 -387 -330 -420 -462
-7 -25 -18 -52 -25 -60 -25 -29 -35 -60 -45 -133 -20 -143 14 -299 103 -470
33 -65 54 -90 116 -143 42 -35 99 -76 126 -90 28 -15 63 -38 78 -50 15 -13 46
-28 68 -34 23 -6 57 -20 78 -30 33 -18 122 -40 158 -40 12 0 14 110 11 768 -2
602 -6 772 -16 790 -18 31 -63 29 -137 -6z"/>
<path d="M16885 11600 c-77 -12 -175 -39 -219 -62 -112 -57 -240 -166 -252
-214 -4 -14 -15 -29 -25 -35 -13 -6 -19 -21 -19 -42 0 -18 -6 -41 -14 -52 -28
-41 -44 -257 -26 -350 7 -33 28 -101 47 -151 29 -77 41 -96 76 -123 23 -17 68
-51 99 -75 134 -103 344 -121 557 -49 70 24 169 92 242 169 135 141 173 236
172 429 0 135 -13 182 -81 293 -51 85 -113 146 -196 195 -132 76 -207 90 -361
67z"/>
<path d="M11470 11549 c-30 -5 -79 -21 -109 -36 -56 -27 -131 -88 -131 -105 0
-6 -13 -25 -29 -43 -37 -43 -67 -123 -86 -233 -23 -128 -7 -217 55 -306 16
-25 30 -51 30 -59 0 -33 201 -161 279 -178 64 -13 144 -5 186 20 16 10 42 21
56 25 36 8 127 108 165 181 42 80 57 151 58 265 0 121 -17 189 -60 241 -19 23
-34 49 -34 59 0 22 -76 107 -127 142 -31 22 -53 28 -118 32 -44 2 -105 0 -135
-5z"/>
<path d="M7232 11456 c-129 -42 -200 -171 -189 -345 8 -132 28 -184 100 -258
34 -35 83 -74 111 -88 45 -21 56 -23 96 -14 76 17 152 72 211 153 27 36 29 45
29 130 -1 118 -13 214 -35 259 -21 45 -102 130 -145 152 -44 23 -126 28 -178
11z"/>
<path d="M3725 11370 c-63 -26 -108 -124 -109 -235 -1 -71 3 -86 29 -134 50
-91 130 -139 199 -120 41 11 93 65 112 116 23 59 16 192 -13 248 -49 94 -151
153 -218 125z"/>
<path d="M768 11293 c-40 -43 -51 -73 -51 -133 0 -107 68 -210 136 -210 66 1
87 39 87 157 0 81 -3 93 -29 135 -52 81 -99 98 -143 51z"/>
<path d="M8604 10880 c-44 -10 -140 -66 -164 -97 -11 -15 -37 -59 -57 -99 -33
-68 -36 -79 -34 -161 2 -160 47 -270 148 -363 61 -56 125 -76 200 -65 190 28
302 204 273 431 -18 138 -33 176 -94 231 -105 93 -203 137 -272 123z"/>
<path d="M19005 10821 c-115 -41 -199 -98 -317 -216 -91 -89 -141 -191 -165
-332 -17 -101 -17 -103 6 -215 25 -124 48 -184 86 -230 14 -16 25 -36 25 -43
0 -8 14 -23 31 -35 17 -13 34 -33 40 -46 6 -18 45 -42 148 -93 166 -82 232
-97 391 -88 154 9 274 51 336 116 16 17 42 33 59 37 50 11 151 123 196 218 45
93 79 218 79 286 0 60 -25 202 -45 260 -8 24 -33 67 -55 95 -22 29 -40 57 -40
63 0 7 -4 12 -10 12 -5 0 -23 20 -39 44 -25 36 -50 54 -138 99 -157 80 -188
87 -377 86 -128 0 -171 -4 -211 -18z"/>
<path d="M4950 10821 c-106 -33 -161 -114 -177 -262 -5 -54 -3 -65 30 -132 66
-131 121 -177 214 -177 72 0 122 32 155 100 77 153 48 300 -83 425 -59 57 -80
64 -139 46z"/>
<path d="M1789 10805 c-73 -39 -88 -220 -28 -337 36 -71 112 -97 163 -57 44
35 60 76 60 159 0 120 -33 194 -104 230 -46 23 -56 24 -91 5z"/>
<path d="M13103 10759 c-99 -61 -161 -127 -208 -223 l-36 -71 1 -170 c0 -181
5 -213 44 -278 34 -59 176 -194 212 -203 16 -4 49 -16 74 -27 68 -31 221 -31
270 0 19 12 59 36 87 54 54 31 127 115 176 199 41 71 57 150 57 285 0 143 -10
180 -78 280 -42 62 -57 75 -131 117 -47 26 -97 56 -113 68 -24 18 -42 20 -150
20 l-123 -1 -82 -50z"/>
<path d="M6066 10298 c-82 -83 -109 -148 -109 -269 0 -70 4 -95 25 -141 31
-68 90 -129 157 -163 62 -31 102 -31 167 -1 152 71 190 278 86 481 -39 78 -74
110 -146 135 -95 32 -109 29 -180 -42z"/>
<path d="M125 10287 c-16 -26 -35 -109 -29 -135 11 -60 17 -74 40 -101 19 -23
34 -31 59 -31 96 0 110 180 20 259 -42 37 -69 39 -90 8z"/>
<path d="M21855 10294 c-11 -2 -60 -14 -110 -25 -192 -45 -297 -100 -428 -228
-95 -92 -127 -134 -203 -271 l-59 -105 0 -170 c1 -244 28 -320 169 -473 172
-185 367 -285 611 -314 102 -11 112 -11 220 0 164 18 319 93 482 234 96 82
210 242 217 302 1 13 9 35 18 48 16 24 33 150 31 228 -1 42 -6 75 -32 192 -21
95 -135 288 -199 336 -21 15 -63 48 -96 75 -32 26 -72 51 -88 54 -16 3 -32 12
-35 19 -17 44 -404 121 -498 98z"/>
<path d="M2884 10276 c-42 -19 -70 -57 -84 -117 -37 -155 49 -324 165 -324
160 0 185 315 33 425 -45 33 -67 36 -114 16z"/>
<path d="M10092 10181 c-67 -23 -121 -75 -177 -169 -52 -89 -59 -127 -45 -267
12 -135 45 -211 123 -289 75 -75 145 -110 222 -110 146 0 251 69 321 211 34
70 39 88 42 169 7 153 -39 266 -147 367 -113 104 -215 131 -339 88z"/>
<path d="M15195 10106 c-33 -6 -66 -15 -74 -20 -8 -5 -28 -9 -45 -8 -42 1
-112 -45 -181 -120 -71 -77 -99 -121 -144 -228 -34 -82 -35 -89 -34 -205 1
-118 1 -121 38 -193 21 -40 51 -83 67 -95 17 -12 38 -38 49 -59 38 -75 140
-135 275 -162 108 -21 144 -20 257 8 121 31 149 46 219 117 100 102 168 280
168 436 0 187 -105 360 -275 459 -128 75 -207 92 -320 70z"/>
<path d="M1048 9758 c-19 -35 -23 -59 -23 -129 0 -76 3 -90 26 -125 14 -22 42
-48 62 -59 65 -35 107 7 122 121 13 93 -32 191 -101 220 -51 21 -62 18 -86
-28z"/>
<path d="M3950 9708 c-124 -82 -107 -343 28 -429 78 -49 147 -34 208 47 27 35
29 44 29 123 0 78 -3 93 -33 154 -41 82 -84 118 -150 124 -37 4 -54 0 -82 -19z"/>
<path d="M7500 9645 c-63 -20 -114 -66 -147 -132 -23 -48 -28 -73 -31 -154 -6
-146 33 -257 115 -330 52 -45 99 -62 178 -63 167 -1 249 105 249 324 0 138
-23 201 -104 282 -81 81 -161 103 -260 73z"/>
<path d="M11764 9434 c-193 -103 -226 -135 -259 -259 -36 -131 -1 -342 77
-470 33 -55 86 -115 102 -115 5 0 34 -17 64 -37 51 -36 60 -38 143 -41 70 -3
101 0 153 18 113 37 214 148 252 276 21 71 25 268 7 329 -7 22 -15 53 -18 68
-4 18 -22 39 -51 60 -25 17 -52 47 -61 65 -9 18 -35 49 -58 68 -41 33 -50 36
-166 49 -68 8 -127 15 -130 15 -3 0 -28 -12 -55 -26z"/>
<path d="M17126 9239 c-82 -20 -184 -87 -251 -166 -76 -89 -134 -171 -139
-198 -3 -11 -11 -37 -20 -57 -39 -92 3 -333 81 -467 58 -100 201 -224 302
-262 78 -29 231 -36 331 -15 105 22 283 109 317 155 15 20 50 63 79 96 90 105
105 154 105 333 0 144 -13 222 -42 248 -10 9 -19 23 -19 29 0 46 -195 226
-299 277 -66 32 -67 33 -236 35 -93 1 -188 -3 -209 -8z"/>
<path d="M2041 9217 c-44 -22 -63 -60 -68 -134 -14 -191 105 -316 211 -222 44
38 51 72 37 174 -17 122 -28 153 -59 169 -42 21 -94 27 -121 13z"/>
<path d="M5145 9095 c-73 -26 -114 -98 -130 -227 -6 -45 -3 -62 14 -94 12 -21
21 -44 21 -50 0 -22 88 -131 123 -152 105 -65 246 24 277 175 23 111 -11 214
-97 293 -74 68 -130 83 -208 55z"/>
<path d="M23915 8998 c-57 -65 -116 -164 -168 -282 l-40 -90 6 -125 c4 -70 13
-152 22 -182 16 -63 71 -171 122 -238 18 -24 33 -50 33 -57 0 -8 6 -14 14 -14
8 0 29 -12 46 -26 17 -15 34 -23 38 -20 10 11 16 730 7 922 -5 125 -10 164
-20 164 -8 0 -34 -24 -60 -52z"/>
<path d="M8884 8911 c-63 -27 -177 -215 -189 -314 -13 -99 41 -241 130 -345
107 -124 274 -136 375 -25 72 77 147 268 137 345 -9 63 -86 215 -130 255 -63
57 -140 87 -227 90 -41 2 -84 -1 -96 -6z"/>
<path d="M364 8769 c-23 -25 -31 -131 -15 -182 26 -77 95 -112 136 -67 37 41
16 182 -35 239 -34 36 -59 39 -86 10z"/>
<path d="M3111 8674 c-52 -44 -65 -79 -66 -175 0 -79 3 -92 35 -154 43 -84 71
-107 134 -107 53 -1 90 20 118 69 60 102 8 287 -99 357 -60 39 -85 41 -122 10z"/>
<path d="M13615 8643 c-216 -48 -330 -163 -379 -380 -35 -158 -3 -321 85 -433
49 -62 177 -165 244 -196 64 -30 153 -31 260 -4 129 33 204 93 283 226 58 97
76 174 70 299 -7 126 -26 178 -107 283 -56 71 -74 87 -162 137 -116 65 -209
87 -294 68z"/>
<path d="M19395 8584 c-13 -10 -32 -14 -52 -10 -25 3 -40 -1 -60 -18 -16 -13
-43 -27 -61 -31 -69 -15 -254 -175 -330 -287 -43 -62 -52 -119 -52 -312 0
-144 2 -165 20 -196 11 -19 34 -62 50 -96 34 -71 153 -196 244 -256 112 -72
309 -115 495 -105 112 5 214 34 225 62 3 8 14 15 25 15 12 0 28 11 36 24 9 14
28 29 43 34 63 22 212 219 212 280 0 10 12 41 26 68 24 45 26 55 20 134 -14
211 -57 330 -155 434 -65 68 -145 137 -163 140 -7 1 -25 9 -39 19 -47 31 -143
65 -208 72 -35 4 -82 16 -105 26 -51 23 -143 25 -171 3z"/>
<path d="M6481 8491 c-98 -40 -163 -126 -176 -236 -12 -90 37 -230 105 -309
44 -49 102 -69 192 -65 92 5 125 27 167 111 38 75 40 135 11 258 -32 131 -80
198 -175 241 -49 23 -68 23 -124 0z"/>
<path d="M1306 8220 c-47 -57 -47 -163 0 -250 36 -65 78 -87 129 -66 88 37 88
211 0 302 -52 55 -90 59 -129 14z"/>
<path d="M10443 8166 c-142 -67 -222 -229 -211 -429 2 -59 10 -86 38 -140 62
-121 108 -170 205 -218 72 -36 96 -43 141 -42 147 4 273 106 321 261 48 158
-23 391 -151 494 -85 68 -138 91 -221 95 -58 3 -79 0 -122 -21z"/>
<path d="M15460 8043 c-44 -8 -183 -79 -246 -125 -36 -27 -68 -60 -78 -82 -9
-20 -37 -59 -61 -86 -58 -65 -69 -108 -63 -245 4 -86 11 -126 33 -185 15 -41
34 -95 43 -120 25 -73 127 -210 156 -210 5 0 30 -13 56 -30 46 -29 125 -61
205 -82 23 -6 77 -7 130 -3 81 5 97 10 165 49 41 23 87 47 102 53 37 16 129
130 174 216 33 63 37 81 45 181 12 150 4 224 -27 254 -13 13 -24 34 -24 47 0
61 -208 259 -295 281 -14 3 -25 10 -25 16 0 19 -113 61 -170 63 -30 1 -64 4
-75 7 -11 3 -31 3 -45 1z"/>
<path d="M4280 7988 c-51 -27 -90 -112 -90 -198 0 -145 91 -260 207 -260 44 0
58 5 87 30 51 45 70 103 64 198 -8 142 -75 222 -198 237 -28 4 -54 1 -70 -7z"/>
<path d="M7802 7737 c-62 -35 -76 -49 -97 -92 -35 -71 -49 -148 -41 -226 16
-172 107 -290 258 -334 69 -20 116 -10 174 36 183 145 175 441 -17 582 -34 25
-166 77 -193 77 -6 0 -44 -19 -84 -43z"/>
<path d="M22110 7740 c-14 -4 -47 -8 -73 -9 -31 -1 -68 -11 -107 -31 -33 -16
-66 -30 -75 -30 -26 0 -222 -189 -275 -266 -28 -41 -55 -74 -60 -74 -28 0 -86
-317 -78 -426 5 -63 61 -208 109 -280 14 -21 29 -51 32 -66 9 -34 79 -96 156
-136 39 -22 63 -41 70 -60 5 -15 32 -50 58 -78 l48 -51 172 -27 c95 -15 208
-27 253 -27 76 0 82 -1 115 -31 33 -28 38 -30 61 -17 14 7 35 14 47 14 54 3
66 7 101 30 30 20 48 25 96 24 50 -1 64 2 90 24 17 15 49 31 70 37 32 9 43 18
55 46 8 19 24 47 35 61 11 15 29 46 39 69 11 24 29 49 41 56 12 7 30 30 41 50
10 20 28 39 38 43 11 3 30 23 42 43 12 20 32 48 45 62 16 18 24 42 28 85 3 33
8 81 11 106 5 35 1 62 -20 120 -15 41 -29 90 -32 109 -3 19 -12 39 -19 43 -8
5 -28 38 -44 73 -34 75 -54 102 -166 222 -45 48 -84 97 -88 110 -4 12 -10 22
-14 23 -4 1 -24 2 -44 3 -25 2 -53 15 -90 43 -65 50 -200 98 -318 112 -97 13
-313 13 -350 1z"/>
<path d="M2327 7561 c-50 -60 -58 -125 -27 -225 46 -149 157 -192 223 -87 33
53 31 159 -4 226 -27 54 -85 101 -135 111 -26 5 -35 1 -57 -25z"/>
<path d="M12072 7490 c-55 -25 -162 -131 -192 -190 -71 -138 -66 -280 16 -441
85 -169 233 -257 414 -247 88 5 132 26 218 103 109 98 185 336 129 404 -7 9
-19 39 -25 66 -23 88 -125 216 -217 271 -90 53 -264 70 -343 34z"/>
<path d="M5463 7316 c-88 -40 -127 -206 -82 -354 26 -87 138 -181 218 -185 53
-2 115 41 156 108 28 45 30 56 30 139 0 80 -4 98 -28 148 -58 117 -199 187
-294 144z"/>
<path d="M659 7221 c-22 -17 -24 -27 -24 -98 0 -65 4 -86 25 -123 28 -49 69
-72 98 -54 31 20 62 76 62 113 0 41 -38 128 -66 153 -32 28 -67 32 -95 9z"/>
<path d="M9162 7139 c-79 -40 -142 -170 -142 -294 0 -147 40 -255 126 -345
182 -191 426 -145 508 95 54 160 19 343 -87 449 -101 100 -300 147 -405 95z"/>
<path d="M17514 7110 c-98 -15 -195 -58 -232 -104 -9 -11 -29 -27 -44 -33 -15
-7 -36 -29 -47 -50 -11 -21 -31 -49 -45 -61 -68 -63 -112 -220 -103 -374 9
-148 20 -185 85 -284 51 -77 71 -98 138 -143 42 -29 89 -61 103 -72 15 -11 55
-24 90 -30 35 -5 91 -22 125 -36 43 -18 85 -28 141 -31 83 -4 82 -5 275 66 60
22 214 175 246 246 23 50 36 134 49 307 7 82 6 86 -20 117 -20 24 -25 38 -20
60 4 22 0 35 -20 56 -14 15 -23 32 -20 37 11 17 -5 46 -30 57 -14 7 -30 23
-35 37 -6 15 -27 33 -55 46 -26 12 -50 31 -55 43 -12 31 -39 52 -104 81 -117
52 -313 82 -422 65z"/>
<path d="M3409 6950 c-43 -45 -54 -85 -46 -169 10 -119 99 -231 183 -231 39 0
89 35 110 78 14 27 19 59 19 117 0 70 -4 87 -30 134 -40 72 -93 111 -153 111
-40 0 -50 -5 -83 -40z"/>
<path d="M6752 6809 c-19 -5 -53 -30 -77 -54 -71 -71 -93 -183 -60 -310 45
-172 142 -265 278 -265 70 0 103 16 151 71 102 120 80 319 -52 470 -65 74
-166 111 -240 88z"/>
<path d="M13867 6739 c-51 -12 -129 -53 -170 -88 -54 -48 -136 -223 -153 -329
-8 -52 35 -213 86 -317 52 -110 131 -185 221 -213 35 -11 93 -33 129 -47 53
-23 73 -26 121 -22 84 9 213 53 260 90 130 100 222 432 150 537 -10 14 -40 67
-67 118 -81 156 -196 255 -315 272 -78 12 -211 11 -262 -1z"/>
<path d="M1621 6649 c-30 -28 -41 -60 -41 -122 0 -101 38 -179 103 -211 32
-15 43 -16 67 -6 85 35 79 227 -10 321 -43 45 -83 51 -119 18z"/>
<path d="M4572 6477 c-87 -70 -110 -152 -78 -270 30 -109 118 -197 197 -197
40 0 101 42 123 85 29 56 29 181 -1 246 -24 53 -85 124 -122 143 -57 29 -77
28 -119 -7z"/>
<path d="M8 6425 c-9 -20 -9 -45 -1 -101 13 -90 38 -124 90 -124 42 0 57 32
50 108 -8 76 -40 117 -104 137 -18 5 -25 1 -35 -20z"/>
<path d="M10745 6390 c-65 -25 -114 -67 -158 -132 -89 -136 -99 -255 -34 -428
20 -52 38 -107 42 -122 3 -16 10 -28 16 -28 6 0 34 -18 62 -40 27 -22 62 -43
76 -46 14 -3 50 -14 79 -26 71 -27 207 -23 250 9 15 11 37 23 49 27 27 9 83
70 118 130 97 165 60 370 -93 522 -69 69 -140 111 -231 138 -70 21 -114 20
-176 -4z"/>
<path d="M2591 6190 c-28 -47 -44 -123 -37 -174 9 -61 58 -157 95 -189 70 -59
148 -19 172 87 10 45 9 66 -5 126 -9 40 -25 87 -36 105 -23 37 -73 65 -131 72
-34 5 -40 3 -58 -27z"/>
<path d="M8063 6089 c-41 -26 -88 -98 -110 -167 -17 -52 -17 -57 5 -166 32
-157 56 -205 131 -260 117 -85 206 -97 300 -38 169 104 168 425 -2 578 -70 63
-100 74 -204 74 -71 0 -94 -4 -120 -21z"/>
<path d="M19952 6070 c-13 -5 -67 -17 -120 -26 -53 -9 -124 -27 -158 -40 -33
-13 -64 -24 -68 -24 -4 0 -40 -32 -78 -72 -55 -56 -80 -91 -114 -163 -24 -50
-49 -115 -55 -145 -23 -109 12 -322 73 -449 44 -90 194 -240 298 -298 164 -92
303 -117 497 -89 216 30 316 86 432 240 72 94 98 154 110 251 21 176 -26 369
-117 480 -23 28 -56 70 -75 95 -18 25 -51 57 -74 73 -81 54 -233 127 -265 127
-17 0 -51 9 -75 21 -48 23 -174 35 -211 19z"/>
<path d="M902 5935 c-16 -35 -15 -128 2 -168 22 -54 71 -99 103 -95 56 6 91
126 59 201 -33 79 -138 118 -164 62z"/>
<path d="M5780 5795 c-112 -51 -156 -184 -111 -334 17 -56 32 -82 75 -129 30
-32 70 -66 89 -77 31 -17 41 -17 89 -6 67 15 139 67 163 117 40 83 17 214 -56
323 -69 104 -164 144 -249 106z"/>
<path d="M15860 5773 c-122 -39 -167 -72 -253 -187 -95 -129 -110 -165 -115
-276 -5 -113 12 -191 64 -295 72 -142 183 -253 319 -317 l70 -33 161 0 c160 0
160 0 193 28 18 15 40 27 49 27 28 0 79 37 94 66 8 17 25 31 44 36 46 12 95
99 128 226 14 56 26 111 26 122 0 40 -34 119 -96 220 -35 58 -64 113 -64 122
0 21 -87 108 -164 163 -72 51 -140 77 -258 100 -95 18 -137 17 -198 -2z"/>
<path d="M3714 5560 c-32 -13 -72 -67 -80 -106 -21 -113 48 -273 138 -320 91
-48 177 35 178 172 0 77 -22 141 -67 193 -55 65 -111 85 -169 61z"/>
<path d="M12465 5435 c-78 -40 -115 -66 -175 -125 -68 -68 -90 -112 -90 -182
0 -58 51 -303 71 -340 41 -79 157 -179 265 -230 57 -26 84 -33 156 -36 80 -4
93 -2 143 23 117 57 215 181 230 290 10 80 -27 274 -69 360 -44 88 -124 179
-187 211 -118 59 -259 71 -344 29z"/>
<path d="M1863 5345 c-69 -48 -43 -257 43 -342 80 -81 161 1 152 155 -4 79
-35 136 -97 178 -41 28 -68 30 -98 9z"/>
<path d="M22705 5269 c-27 -6 -54 -14 -60 -19 -6 -5 -42 -14 -80 -20 -39 -6
-104 -27 -146 -46 -42 -19 -92 -37 -110 -40 -48 -10 -85 -30 -154 -84 -47 -38
-64 -59 -77 -96 -12 -34 -27 -54 -48 -66 -17 -10 -30 -25 -30 -36 0 -10 -9
-27 -20 -37 -37 -33 -45 -81 -45 -270 0 -155 3 -185 18 -213 10 -18 16 -41 13
-50 -4 -11 18 -56 56 -117 90 -146 256 -309 372 -365 194 -94 351 -127 558
-117 86 4 135 12 190 31 40 13 93 30 117 36 24 6 60 25 80 41 20 16 64 49 98
74 34 24 74 62 87 84 14 22 34 42 44 45 25 8 78 75 102 128 11 25 34 53 57 68
35 24 58 70 35 70 -18 0 -26 92 -20 242 2 51 -1 73 -10 76 -17 5 -42 31 -42
43 0 5 7 9 16 9 29 0 4 43 -72 121 -41 42 -74 82 -74 88 0 6 6 20 12 31 18 28
-8 74 -44 78 -14 2 -36 14 -49 28 -12 13 -28 24 -35 24 -7 0 -28 13 -47 29
-18 17 -57 39 -85 50 -28 11 -105 48 -169 80 -178 91 -320 123 -438 100z"/>
<path d="M9625 5226 c-131 -28 -163 -47 -197 -116 -93 -187 -30 -452 139 -584
77 -61 135 -80 228 -74 89 6 129 27 172 92 45 66 63 134 63 235 0 90 -15 162
-45 221 -46 91 -205 252 -246 249 -8 0 -59 -11 -114 -23z"/>
<path d="M270 5130 c-41 -41 -17 -180 41 -236 l30 -28 24 29 c42 53 49 80 36
140 -14 61 -56 115 -90 115 -12 0 -30 -9 -41 -20z"/>
<path d="M7085 5021 c-64 -29 -103 -68 -116 -114 -14 -51 -5 -185 18 -259 40
-135 154 -239 262 -240 64 0 103 22 149 85 52 69 62 103 62 212 0 87 -2 94
-36 151 -41 68 -89 121 -118 130 -12 4 -34 17 -49 30 -36 30 -113 32 -172 5z"/>
<path d="M4870 4742 c-38 -38 -70 -116 -70 -172 0 -44 30 -132 61 -181 61 -96
168 -135 238 -87 49 33 71 68 79 124 11 69 -2 139 -40 212 -36 73 -82 117
-135 131 -68 19 -92 14 -133 -27z"/>
<path d="M17895 4686 c-49 -13 -81 -26 -160 -69 -89 -48 -142 -105 -171 -185
-10 -26 -24 -55 -33 -65 -24 -29 -28 -244 -6 -342 15 -68 25 -87 90 -173 102
-135 233 -231 385 -282 48 -17 98 -24 195 -27 116 -5 136 -3 180 15 28 11 72
23 98 27 40 5 52 12 65 36 10 16 30 34 45 40 61 25 152 168 192 299 15 51 15
60 1 105 -8 28 -18 79 -21 115 -8 84 -41 165 -102 246 -82 112 -103 133 -144
145 -21 7 -39 16 -39 20 0 13 -86 54 -165 79 -88 28 -330 37 -410 16z"/>
<path d="M2948 4531 c-75 -37 -92 -169 -37 -279 35 -71 80 -105 140 -105 71 0
105 59 97 167 -9 109 -74 211 -145 229 -12 3 -37 -3 -55 -12z"/>
<path d="M14259 4456 c-101 -27 -199 -115 -260 -234 -22 -43 -24 -59 -24 -182
l0 -135 37 -71 c49 -95 149 -227 205 -269 25 -19 62 -38 82 -41 20 -4 56 -16
81 -26 25 -11 79 -22 121 -25 65 -5 88 -2 160 22 106 35 157 70 209 142 71
100 90 213 57 350 -20 86 -125 301 -164 338 -45 41 -198 115 -271 130 -81 18
-171 18 -233 1z"/>
<path d="M1234 4347 c-23 -20 -26 -30 -25 -82 0 -43 8 -73 28 -114 44 -88 104
-103 144 -38 38 64 13 165 -57 227 -42 36 -55 37 -90 7z"/>
<path d="M11142 4318 c-73 -28 -153 -108 -183 -185 -30 -76 -32 -212 -5 -293
44 -132 153 -256 273 -313 60 -28 78 -32 153 -32 97 0 136 15 195 73 72 72
102 175 92 312 -10 128 -46 208 -151 334 -39 46 -55 57 -151 105 -54 27 -151
27 -223 -1z"/>
<path d="M8467 4166 c-52 -19 -69 -37 -101 -101 -56 -114 -57 -190 -3 -328
100 -261 389 -314 502 -92 26 52 30 69 30 144 0 74 -5 98 -33 168 -47 117 -68
143 -144 182 -79 40 -185 52 -251 27z"/>
<path d="M6130 3978 c-106 -29 -166 -147 -140 -275 42 -205 186 -317 326 -254
112 51 145 197 77 342 -66 141 -167 213 -263 187z"/>
<path d="M4016 3828 c-141 -141 11 -475 189 -416 63 21 80 55 80 157 0 81 -3
94 -35 156 -43 84 -91 125 -154 132 -42 5 -48 3 -80 -29z"/>
<path d="M2214 3699 c-80 -39 -67 -221 22 -313 85 -88 181 -11 160 128 -10 64
-55 147 -95 173 -37 25 -55 27 -87 12z"/>
<path d="M20213 3690 c-111 -26 -243 -89 -298 -142 -24 -24 -55 -52 -70 -63
-60 -46 -109 -241 -103 -414 3 -101 5 -110 45 -193 45 -94 99 -159 240 -289
146 -133 259 -177 480 -186 116 -5 140 -3 205 17 40 12 89 31 108 42 19 11 43
22 53 24 31 5 86 52 113 95 13 22 28 37 33 35 13 -8 56 44 87 104 29 55 29 56
29 240 0 180 -1 187 -26 235 -125 242 -185 302 -403 406 -204 97 -348 123
-493 89z"/>
<path d="M574 3635 c-20 -31 -13 -107 16 -172 20 -45 44 -63 85 -63 20 0 29 8
41 36 13 31 13 41 -2 96 -19 67 -68 128 -102 128 -12 0 -29 -11 -38 -25z"/>
<path d="M16195 3576 c-94 -22 -112 -32 -178 -99 -117 -119 -136 -159 -144
-303 -7 -110 14 -189 85 -329 85 -167 254 -303 398 -321 27 -4 64 -15 82 -25
41 -24 47 -24 81 1 15 12 58 27 97 35 86 18 184 66 231 112 70 70 120 229 110
352 -5 64 -58 224 -82 246 -6 6 -27 36 -46 68 -19 33 -52 74 -74 93 -22 19
-53 48 -70 63 -37 35 -43 38 -124 69 -109 40 -279 58 -366 38z"/>
<path d="M12814 3432 c-61 -21 -141 -79 -178 -127 -55 -72 -70 -122 -70 -230
0 -125 25 -213 89 -310 25 -38 45 -72 45 -76 0 -8 130 -98 180 -125 29 -16 56
-19 155 -19 103 1 127 4 170 23 62 29 106 70 156 146 38 58 39 61 39 150 0
174 -30 273 -110 367 -19 22 -51 59 -70 81 -97 113 -274 165 -406 120z"/>
<path d="M9918 3360 c-75 -14 -157 -92 -186 -178 -32 -95 -20 -234 31 -346 36
-79 134 -177 209 -211 120 -54 212 -42 284 37 75 83 104 190 84 313 -17 107
-55 180 -163 310 -45 55 -172 91 -259 75z"/>
<path d="M7359 3263 c-28 -26 -62 -67 -76 -91 -24 -40 -25 -49 -19 -122 13
-160 70 -279 160 -335 66 -40 158 -43 225 -5 62 35 80 64 96 156 16 91 6 165
-35 259 -30 69 -62 101 -152 146 -106 53 -135 52 -199 -8z"/>
<path d="M5190 3128 c-63 -33 -85 -75 -84 -163 2 -117 75 -260 149 -291 95
-39 173 -4 195 87 34 141 -40 316 -155 370 -51 24 -52 23 -105 -3z"/>
<path d="M3194 2990 c-64 -26 -55 -191 16 -289 93 -127 220 -99 220 50 0 163
-121 286 -236 239z"/>
<path d="M1493 2883 c-19 -47 -13 -125 16 -181 28 -55 47 -72 82 -72 64 0 93
78 65 174 -21 73 -62 116 -111 116 -32 0 -38 -4 -52 -37z"/>
<path d="M7 2903 c-4 -3 -7 -44 -7 -90 0 -70 3 -86 20 -103 25 -25 42 -25 63
-2 35 38 12 153 -37 187 -23 17 -30 18 -39 8z"/>
<path d="M22906 2719 c-38 -5 -89 -18 -115 -30 -25 -11 -74 -24 -108 -28 -43
-5 -70 -14 -86 -29 -13 -12 -31 -22 -41 -22 -24 0 -58 -19 -74 -42 -7 -10 -21
-18 -30 -18 -10 0 -23 -9 -30 -20 -7 -11 -18 -20 -26 -20 -8 0 -21 -19 -30
-42 -10 -24 -30 -54 -46 -68 -17 -14 -43 -57 -61 -100 -53 -127 -61 -166 -56
-270 5 -84 10 -107 50 -200 24 -58 58 -132 74 -165 105 -207 283 -344 561
-432 82 -26 98 -28 257 -27 195 1 273 17 410 83 95 46 213 138 231 180 7 17
30 56 52 88 22 32 49 78 62 102 28 55 39 154 19 177 -11 13 -10 17 4 25 22 13
24 106 2 135 -9 12 -12 31 -9 50 4 23 1 33 -10 37 -9 4 -16 17 -16 29 0 13
-23 70 -51 128 -50 101 -109 180 -136 180 -7 0 -19 12 -27 28 -8 15 -27 39
-43 53 -42 39 -194 129 -218 129 -11 0 -35 9 -54 21 -18 11 -52 24 -75 29 -22
5 -59 15 -81 23 -52 19 -212 28 -299 16z"/>
<path d="M18290 2440 c-118 -25 -288 -147 -343 -247 -57 -106 -70 -237 -37
-367 31 -121 82 -208 180 -306 167 -167 342 -235 580 -228 104 3 121 6 181 35
88 41 208 154 246 232 27 55 28 60 28 231 l0 175 -34 70 c-27 54 -58 94 -140
176 -93 93 -118 112 -201 152 -52 26 -127 54 -166 62 -94 19 -238 26 -294 15z"/>
<path d="M11467 2406 c-83 -30 -154 -95 -191 -176 -17 -37 -21 -65 -21 -155 0
-108 1 -111 40 -188 102 -202 235 -300 406 -299 79 0 131 21 199 79 64 55 90
119 90 223 0 168 -39 265 -151 381 -79 81 -142 117 -237 138 -67 14 -88 13
-135 -3z"/>
<path d="M8755 2382 c-88 -52 -125 -126 -125 -247 0 -171 90 -320 237 -394 70
-35 121 -37 164 -8 21 14 45 28 55 31 30 9 75 56 92 95 10 23 17 78 20 151 l4
115 -39 60 c-84 129 -203 215 -307 222 -42 3 -59 -1 -101 -25z"/>
<path d="M14631 2400 c-105 -22 -138 -40 -199 -104 -74 -79 -99 -131 -114
-233 -54 -368 332 -743 682 -662 24 5 73 24 107 40 49 23 67 38 82 67 10 20
33 62 50 93 34 62 71 191 71 250 0 20 -11 61 -25 91 -14 29 -25 60 -25 69 0
26 -113 171 -167 215 -83 68 -115 90 -201 132 -90 46 -176 60 -261 42z"/>
<path d="M6402 2300 c-103 -25 -147 -156 -102 -302 70 -229 294 -307 389 -137
21 36 23 51 19 127 -3 66 -10 101 -30 143 -28 62 -87 133 -127 154 -35 18
-109 26 -149 15z"/>
<path d="M4326 2267 c-64 -36 -81 -68 -80 -145 1 -132 106 -282 196 -282 34 0
82 33 108 75 20 32 22 46 18 115 -6 96 -40 173 -100 225 -49 42 -85 45 -142
12z"/>
<path d="M857 2250 c-79 -62 -4 -250 100 -250 l36 0 -5 79 c-4 62 -10 88 -32
124 -22 39 -51 67 -69 67 -2 0 -16 -9 -30 -20z"/>
<path d="M2460 2199 c-28 -39 -31 -49 -27 -94 7 -71 43 -160 78 -195 56 -56
147 -35 166 38 10 41 -3 119 -30 174 -42 84 -66 108 -114 115 -39 5 -42 4 -73
-38z"/>
<path d="M250 1569 c-25 -46 16 -147 73 -179 57 -32 82 25 52 125 -17 59 -35
75 -84 75 -20 0 -34 -7 -41 -21z"/>
<path d="M1814 1570 c-35 -14 -48 -39 -46 -96 2 -64 35 -147 70 -174 13 -11
40 -20 59 -20 44 0 57 31 50 120 -7 114 -69 193 -133 170z"/>
<path d="M3487 1538 c-41 -32 -49 -135 -17 -222 40 -105 102 -166 170 -166 70
0 100 44 100 148 0 109 -43 203 -110 237 -35 18 -120 20 -143 3z"/>
<path d="M5506 1530 c-44 -14 -63 -37 -76 -92 -31 -128 32 -294 134 -353 95
-55 158 -36 203 61 20 45 24 67 21 112 -7 97 -79 221 -147 256 -36 19 -101 26
-135 16z"/>
<path d="M7654 1486 c-69 -61 -77 -85 -72 -203 3 -84 8 -107 34 -163 61 -127
161 -207 273 -217 75 -7 107 10 157 83 l39 57 0 101 c-1 115 -17 158 -100 266
-62 81 -117 112 -209 118 l-71 4 -51 -46z"/>
<path d="M10242 1505 c-96 -43 -180 -145 -189 -228 -7 -68 13 -185 39 -234 11
-21 31 -58 43 -83 28 -56 121 -145 177 -170 60 -26 163 -43 212 -34 81 13 111
37 153 121 37 76 38 79 38 188 -1 95 -4 117 -25 159 -50 104 -171 230 -256
267 -62 28 -149 34 -192 14z"/>
<path d="M13161 1433 c-37 -8 -154 -132 -187 -198 -25 -53 -29 -71 -29 -150 0
-110 30 -196 105 -303 85 -121 188 -197 310 -228 80 -20 140 -13 229 27 86 39
122 75 162 162 61 133 49 276 -33 412 -58 96 -167 199 -222 211 -17 3 -58 20
-90 37 -50 26 -72 31 -140 33 -45 1 -92 0 -105 -3z"/>
<path d="M16513 1430 c-82 -19 -218 -132 -257 -213 -54 -109 -56 -331 -6 -445
64 -144 242 -316 395 -380 75 -32 130 -42 240 -42 179 0 282 35 359 121 71 77
79 112 74 284 -5 125 -9 160 -27 199 -11 27 -21 61 -21 77 0 17 -12 42 -30 62
-16 19 -30 40 -30 46 0 19 -82 101 -120 121 -19 10 -44 28 -55 40 -75 84 -389
162 -522 130z"/>
<path d="M20505 1411 c-53 -14 -178 -73 -234 -109 -63 -42 -131 -130 -160
-206 -27 -72 -44 -207 -36 -280 14 -126 112 -306 229 -421 151 -149 373 -240
612 -252 98 -5 116 -3 158 16 27 11 61 21 77 21 33 0 183 110 224 164 44 57
83 141 90 192 4 27 14 74 22 105 13 50 13 60 0 85 -8 16 -18 63 -22 104 -4 41
-13 82 -20 90 -6 8 -20 35 -29 60 -10 25 -39 66 -64 91 -26 26 -63 66 -82 90
-19 23 -53 50 -75 60 -22 10 -54 32 -70 50 -43 46 -186 111 -249 114 -28 1
-62 7 -76 15 -29 15 -248 24 -295 11z"/>
<path d="M1131 874 c-35 -45 -24 -122 28 -196 21 -30 58 -58 76 -58 2 0 11 7
19 16 23 22 21 127 -3 180 -17 38 -66 84 -89 84 -6 0 -20 -12 -31 -26z"/>
<path d="M2743 814 c-21 -33 -29 -126 -14 -180 14 -54 48 -103 90 -131 34 -23
85 -30 108 -15 31 20 44 130 23 201 -33 116 -162 194 -207 125z"/>
<path d="M4590 742 c-29 -29 -40 -49 -45 -85 -21 -140 101 -317 219 -317 75 0
116 50 116 144 0 106 -58 210 -149 267 -62 40 -95 38 -141 -9z"/>
<path d="M6705 690 c-171 -85 -116 -408 87 -509 107 -54 192 -35 237 52 22 44
23 50 13 137 -19 159 -80 255 -197 311 -71 34 -87 35 -140 9z"/>
<path d="M9148 649 c-79 -12 -152 -69 -182 -141 -35 -84 -13 -237 48 -343 33
-56 114 -129 162 -146 51 -18 241 -19 271 -1 47 26 84 133 84 242 0 84 -26
150 -95 238 -39 50 -107 114 -143 135 -24 15 -99 23 -145 16z"/>
<path d="M11798 561 c-78 -25 -139 -88 -185 -187 -25 -54 -26 -62 -19 -168 9
-143 24 -176 86 -193 29 -7 155 -12 364 -12 l319 -1 -7 73 c-14 148 -57 234
-178 357 -85 85 -181 132 -281 136 -40 2 -84 -1 -99 -5z"/>
<path d="M14953 426 c-148 -47 -253 -205 -253 -381 l0 -45 408 0 c458 0 566 5
558 27 -3 8 -46 67 -95 132 -160 209 -287 282 -491 280 -47 0 -104 -6 -127
-13z"/>
<path d="M23220 320 c-97 -9 -147 -26 -242 -84 -83 -50 -251 -193 -245 -209 6
-19 157 -25 730 -26 l537 -1 0 78 c0 54 -5 84 -15 99 -28 41 -138 93 -237 114
-77 16 -376 42 -428 38 -8 -1 -53 -5 -100 -9z"/>
<path d="M18655 261 c-103 -28 -234 -118 -323 -221 l-34 -40 528 0 528 0 -35
36 c-89 93 -232 177 -354 209 -69 18 -266 28 -310 16z"/>
<path d="M526 238 c-9 -12 -16 -36 -16 -53 1 -41 33 -109 61 -129 29 -20 75
-21 82 -1 8 20 -11 132 -28 165 -23 45 -74 54 -99 18z"/>
<path d="M2060 130 c-25 -25 -27 -91 -4 -114 21 -21 132 -22 160 -1 19 14 19
15 -2 52 -25 44 -77 83 -110 83 -13 0 -33 -9 -44 -20z"/>
<path d="M3777 32 c-24 -26 -13 -32 59 -32 72 0 88 12 45 35 -40 20 -84 19
-104 -3z"/>
</g>
</svg>
